<svg width="18" height="18" viewBox="0 0 18 18" fill="none" xmlns="http://www.w3.org/2000/svg">
<path d="M9.00011 9.00002C10.0657 9.00002 11.0877 8.57671 11.8412 7.82322C12.5947 7.06972 13.018 6.04777 13.018 4.98216C13.018 3.91656 12.5947 2.89461 11.8412 2.14111C11.0877 1.38762 10.0657 0.964308 9.00011 0.964308C7.93451 0.964308 6.91255 1.38762 6.15906 2.14111C5.40556 2.89461 4.98226 3.91656 4.98226 4.98216C4.98226 6.04777 5.40556 7.06972 6.15906 7.82322C6.91255 8.57671 7.93451 9.00002 9.00011 9.00002ZM15.3416 17.0357C16.1693 17.0357 16.8055 16.2844 16.5095 15.5103C15.9289 13.989 14.8999 12.6798 13.5588 11.7562C12.2178 10.8326 10.6278 10.3381 8.99944 10.3381C7.37108 10.3381 5.78112 10.8326 4.44004 11.7562C3.09896 12.6798 2.07001 13.989 1.4894 15.5103C1.19476 16.2844 1.82958 17.0357 2.65726 17.0357H15.3416Z" fill="#434C41"/>
</svg>
